<?xml version="1.0"?>
<svg xmlns="http://www.w3.org/2000/svg" xmlns:xlink="http://www.w3.org/1999/xlink" xmlns:svgjs="http://svgjs.com/svgjs" version="1.1" width="512" height="512" x="0" y="0" viewBox="0 0 497 497" style="enable-background:new 0 0 512 512" xml:space="preserve" class=""><g><g xmlns="http://www.w3.org/2000/svg"><path d="m323.336 432.327h50.047c0-94.088 50.191-169.153 50.698-169.9h-57.673c-17.609 34.194-43.072 96.35-43.072 169.9z" fill="#c7c5cb" data-original="#c7c5cb" style="" class=""/><path d="m379.023 397.754-291.619 23.02c-19.855 1.567-35.168 18.137-35.168 38.054 0 21.082 17.09 38.172 38.172 38.172h292.526c27.449 0 49.7-22.251 49.7-49.7 0-28.99-24.711-51.827-53.611-49.546z" fill="#5c586f" data-original="#5c586f" style="" class=""/><path d="m291.328 114.863-.036-.481c-7.58-64.412-62.357-114.382-128.806-114.382-71.633 0-129.703 58.07-129.703 129.702v73.931c0 47.997 38.909 86.906 86.906 86.906h29.358l30.182-33.913c-.135 0-.268.005-.403.005z" fill="#805460" data-original="#60d9a7" style="" class=""/><path d="m90.712 136.897c0-63.218 37.847-116.829 90.274-135.586-6.043-.863-12.219-1.311-18.5-1.311-71.633 0-129.702 58.07-129.702 129.702v73.931c0 47.997 38.909 86.906 86.906 86.906h29.358l20.357-22.874c-46.328-22.067-78.693-72.309-78.693-130.768z" fill="#87485a" data-original="#00cd8c" style="" class=""/><path d="m253.28 289.925v24.983c0 5.365-.671 10.56-1.932 15.534l-61.102 23.747-61.102-23.747c-1.261-4.975-1.932-10.169-1.932-15.534v-24.983c0-34.813 28.216-63.039 63.029-63.039s63.039 28.227 63.039 63.039z" fill="#ff889e" data-original="#ff889e" style=""/><path d="m153.112 304.804c0-34.396 26.224-63.441 62.166-72.737-7.676-3.327-16.139-5.181-25.037-5.181-34.813 0-63.029 28.227-63.029 63.039v24.983c0 5.365.671 10.56 1.932 15.535l28.382 11.03c-3.276-11.601-4.414-24.226-4.414-36.669z" fill="#ff748f" data-original="#ff748f" style=""/><path d="m291.328 114.863c-24.131-5.073-54.77-15.49-78.864-36.712-8.245-7.262-20.695-7.078-28.863.271-39.333 35.387-93.53 40.542-115.635 41.089-1.741 8.162-2.611 16.646-2.491 25.354.876 63.082 52.315 112.862 115.393 111.748 61.666-1.089 111.319-51.418 111.319-113.344z" fill="#ffdcce" data-original="#ffdcce" style=""/><path d="m197.616 363.574c-10.179-10.179-26.683-10.179-36.862 0l-38.659 38.659c-10.179 10.179-10.179 26.683 0 36.862 10.179 10.179 26.682 10.179 36.861 0l38.659-38.659c10.18-10.18 10.18-26.683.001-36.862z" fill="#ffcabd" data-original="#ffcabd" style="" class=""/><path d="m207.707 339.816c-14.395 0-26.065 11.67-26.065 26.065v54.673c0 14.395 11.67 26.065 26.065 26.065 14.395 0 26.065-11.67 26.065-26.065v-54.673c0-14.395-11.67-26.065-26.065-26.065z" fill="#ffdcce" data-original="#ffdcce" style=""/><path d="m251.348 330.443c-2.833 11.16-8.638 21.14-16.535 29.037-11.411 11.401-27.165 18.457-44.572 18.457-29.448 0-54.181-20.199-61.097-47.495h122.204z" fill="#5c586f" data-original="#5c586f" style="" class=""/><g><g><ellipse cx="198.071" cy="155.108" fill="#423e4f" rx="12.346" ry="13.815" data-original="#423e4f" style="" class=""/></g><g><path d="m138.924 155.489c-4.142 0-7.5-3.358-7.5-7.5v-11.023c0-4.142 3.358-7.5 7.5-7.5s7.5 3.358 7.5 7.5v11.023c0 4.142-3.357 7.5-7.5 7.5z" fill="#423e4f" data-original="#423e4f" style="" class=""/></g><g><path d="m257.217 155.489c-4.142 0-7.5-3.358-7.5-7.5v-11.023c0-4.142 3.358-7.5 7.5-7.5s7.5 3.358 7.5 7.5v11.023c0 4.142-3.358 7.5-7.5 7.5z" fill="#423e4f" data-original="#423e4f" style="" class=""/></g></g><path d="m345.836 309.63h53.849c12.222-29.005 24.15-46.841 24.396-47.204h-57.673c-6.357 12.345-13.735 28.35-20.572 47.204z" fill="#a19dae" data-original="#a19dae" style="" class=""/><path d="m450.62 131.673-14.205-3.402c-9.517-2.28-19.081 3.588-21.36 13.105l-21.128 88.207h-53.788c-27.64 0-50.047 22.407-50.047 50.047h123.572c11.574 0 21.639-7.938 24.335-19.195l25.725-107.402c2.281-9.517-3.587-19.08-13.104-21.36z" fill="#5c586f" data-original="#5c586f" style="" class=""/><path d="m313.444 245.01c-7.344-13.31-24.089-18.147-37.399-10.802-17.232 9.508-36.547 7.743-50.537 4.179-12.15-3.095-24.863 2.296-30.957 13.253-8.741 15.716-.324 35.528 17.096 39.995 4.51 1.157 9.375 2.193 14.52 2.994 22.259 3.465 49.763 2.518 76.473-12.22 13.311-7.345 18.147-24.089 10.804-37.399z" fill="#ffcabd" data-original="#ffcabd" style="" class=""/><path d="m90.712 136.897c0-6.561.417-13.016 1.206-19.342-9.697 1.318-17.997 1.808-23.953 1.955-1.741 8.162-2.612 16.646-2.491 25.354.692 49.864 32.982 91.41 77.637 106.083-31.822-26.048-52.399-67.437-52.399-114.05z" fill="#ffcabd" data-original="#ffcabd" style="" class=""/><path d="m155.07 330.443h-25.926c6.178 24.382 26.577 43.088 51.849 46.807-15.341-11.178-22.782-28.227-25.923-46.807z" fill="#4f4c5f" data-original="#4f4c5f" style="" class=""/></g></g></svg>
